<?xml version="1.0" encoding="utf-8"?>
<!-- Generator: Adobe Illustrator 15.1.0, SVG Export Plug-In . SVG Version: 6.00 Build 0)  -->
<!DOCTYPE svg PUBLIC "-//W3C//DTD SVG 1.1//EN" "http://www.w3.org/Graphics/SVG/1.1/DTD/svg11.dtd">
<svg version="1.1" id="Capa_1" xmlns="http://www.w3.org/2000/svg" xmlns:xlink="http://www.w3.org/1999/xlink" x="0px" y="0px"
	 width="50px" height="50px" viewBox="0 0 50 50" enable-background="new 0 0 50 50" xml:space="preserve">
<g>
	<path d="M47.285,2.717c-1.835-1.838-4.049-2.756-6.635-2.756h-31.3c-2.587,0-4.798,0.918-6.634,2.756
		C0.881,4.552-0.039,6.764-0.039,9.35v31.3c0,2.586,0.918,4.798,2.756,6.635c1.836,1.835,4.047,2.755,6.634,2.755h31.3
		c2.586,0,4.798-0.92,6.635-2.755c1.835-1.837,2.753-4.049,2.753-6.635V9.35C50.038,6.765,49.12,4.553,47.285,2.717z M41.693,27.088
		c0,0.564-0.206,1.055-0.619,1.467c-0.414,0.41-0.902,0.619-1.468,0.619H29.176v10.434c0,0.562-0.211,1.053-0.621,1.467
		c-0.412,0.413-0.901,0.619-1.467,0.619h-4.176c-0.563,0-1.054-0.206-1.465-0.619c-0.416-0.414-0.622-0.902-0.622-1.467V29.174
		H10.395c-0.568,0-1.055-0.209-1.469-0.619c-0.412-0.412-0.619-0.901-0.619-1.467v-4.176c0-0.562,0.207-1.054,0.619-1.467
		c0.414-0.414,0.9-0.62,1.469-0.62h10.431V10.395c0-0.566,0.208-1.057,0.622-1.469c0.411-0.412,0.901-0.619,1.465-0.619h4.176
		c0.564,0,1.055,0.208,1.467,0.619c0.41,0.412,0.621,0.9,0.621,1.469v10.431h10.431c0.563,0,1.054,0.206,1.47,0.62
		c0.411,0.413,0.617,0.903,0.617,1.467V27.088L41.693,27.088z"/>
</g>
</svg>
